<mxfile host="app.diagrams.net" agent="Mozilla/5.0 (Macintosh; Intel Mac OS X 10_15_7) AppleWebKit/537.36 (KHTML, like Gecko) Chrome/128.0.0.0 Safari/537.36" version="24.7.16">
  <diagram name="第 1 页" id="6_owP4Wbt96kM3nH-9n2">
    <mxGraphModel dx="954" dy="605" grid="1" gridSize="10" guides="1" tooltips="1" connect="1" arrows="1" fold="1" page="1" pageScale="1" pageWidth="827" pageHeight="1169" math="0" shadow="0">
      <root>
        <mxCell id="0" />
        <mxCell id="1" parent="0" />
        <mxCell id="oPPP4PfQ4fEj6W_qTHcY-1" value="" style="endArrow=classic;html=1;rounded=0;" edge="1" parent="1">
          <mxGeometry width="50" height="50" relative="1" as="geometry">
            <mxPoint x="180" y="300" as="sourcePoint" />
            <mxPoint x="570" y="300" as="targetPoint" />
          </mxGeometry>
        </mxCell>
        <mxCell id="oPPP4PfQ4fEj6W_qTHcY-2" value="JS" style="rounded=0;whiteSpace=wrap;html=1;fillColor=#dae8fc;strokeColor=#6c8ebf;" vertex="1" parent="1">
          <mxGeometry x="250" y="260" width="110" height="40" as="geometry" />
        </mxCell>
        <mxCell id="oPPP4PfQ4fEj6W_qTHcY-3" value="GC" style="rounded=0;whiteSpace=wrap;html=1;fillColor=#d5e8d4;strokeColor=#82b366;" vertex="1" parent="1">
          <mxGeometry x="360" y="260" width="50" height="40" as="geometry" />
        </mxCell>
        <mxCell id="oPPP4PfQ4fEj6W_qTHcY-5" value="JS" style="rounded=0;whiteSpace=wrap;html=1;fillColor=#dae8fc;strokeColor=#6c8ebf;" vertex="1" parent="1">
          <mxGeometry x="410" y="260" width="100" height="40" as="geometry" />
        </mxCell>
        <mxCell id="oPPP4PfQ4fEj6W_qTHcY-10" value="" style="endArrow=classic;html=1;rounded=0;dashed=1;" edge="1" parent="1">
          <mxGeometry width="50" height="50" relative="1" as="geometry">
            <mxPoint x="170" y="240" as="sourcePoint" />
            <mxPoint x="570" y="240" as="targetPoint" />
          </mxGeometry>
        </mxCell>
        <mxCell id="oPPP4PfQ4fEj6W_qTHcY-11" value="&lt;font style=&quot;font-size: 14px;&quot;&gt;主线程&lt;/font&gt;" style="text;html=1;align=center;verticalAlign=middle;resizable=0;points=[];autosize=1;strokeColor=none;fillColor=none;" vertex="1" parent="1">
          <mxGeometry x="85" y="278" width="70" height="30" as="geometry" />
        </mxCell>
        <mxCell id="oPPP4PfQ4fEj6W_qTHcY-12" value="&lt;font style=&quot;font-size: 14px;&quot;&gt;辅助线程1&lt;/font&gt;" style="text;html=1;align=center;verticalAlign=middle;resizable=0;points=[];autosize=1;strokeColor=none;fillColor=none;" vertex="1" parent="1">
          <mxGeometry x="85" y="218" width="90" height="30" as="geometry" />
        </mxCell>
        <mxCell id="oPPP4PfQ4fEj6W_qTHcY-13" value="GC" style="rounded=0;whiteSpace=wrap;html=1;fillColor=#d5e8d4;strokeColor=#82b366;" vertex="1" parent="1">
          <mxGeometry x="360" y="200" width="50" height="40" as="geometry" />
        </mxCell>
        <mxCell id="oPPP4PfQ4fEj6W_qTHcY-14" value="" style="endArrow=classic;html=1;rounded=0;dashed=1;" edge="1" parent="1">
          <mxGeometry width="50" height="50" relative="1" as="geometry">
            <mxPoint x="170" y="180" as="sourcePoint" />
            <mxPoint x="570" y="180" as="targetPoint" />
          </mxGeometry>
        </mxCell>
        <mxCell id="oPPP4PfQ4fEj6W_qTHcY-15" value="&lt;font style=&quot;font-size: 14px;&quot;&gt;辅助线程2&lt;/font&gt;" style="text;html=1;align=center;verticalAlign=middle;resizable=0;points=[];autosize=1;strokeColor=none;fillColor=none;" vertex="1" parent="1">
          <mxGeometry x="85" y="158" width="90" height="30" as="geometry" />
        </mxCell>
        <mxCell id="oPPP4PfQ4fEj6W_qTHcY-16" value="GC" style="rounded=0;whiteSpace=wrap;html=1;fillColor=#d5e8d4;strokeColor=#82b366;" vertex="1" parent="1">
          <mxGeometry x="360" y="140" width="50" height="40" as="geometry" />
        </mxCell>
      </root>
    </mxGraphModel>
  </diagram>
</mxfile>
